# xmcd CD database file
#
# Track frame offsets:
#	187
#	19224
#	39017
#	58074
#
# Disc length: 1036 seconds
#
# Revision: 0
# Processed by: cddbd v1.5.1PL0 Copyright (c) Steve Scherf et al.
# Submitted via: CDex 1.51
#
DISCID=28040a04
DTITLE=三重野 瞳 - 極道くん漫遊記外伝2
DYEAR=1995
DGENRE=Anime
TTITLE0=Wonderful Bravo!
TTITLE1=どしゃぶりの天使
TTITLE2=Wonderful Bravo!(オリジナル・カラオケ)
TTITLE3=どしゃぶりの天使(オリジナル・カラオケ)
EXTD=YEAR: 1995
EXTT0=
EXTT1=
EXTT2=
EXTT3=
PLAYORDER=
